<?xml version="1.0" encoding="UTF-8"?>
<svg width="22px" height="22px" viewBox="0 0 22 22" version="1.1" xmlns="http://www.w3.org/2000/svg" xmlns:xlink="http://www.w3.org/1999/xlink">
    <!-- Generator: Sketch 48.2 (47327) - http://www.bohemiancoding.com/sketch -->
    <title>Group 18 Copy</title>
    <desc>Created with Sketch.</desc>
    <defs></defs>
    <g id="uikit" stroke="none" stroke-width="1" fill="none" fill-rule="evenodd">
        <g id="Group-18-Copy">
            <rect id="Rectangle-4" x="0" y="0" width="22" height="22"></rect>
            <circle id="Oval-Copy" fill="#F2FAFF" cx="11" cy="12" r="9"></circle>
            <path d="M7.21781496,4.88800042 L9.16077149,1.77926998 C9.27785563,1.59193536 9.52463578,1.5349861 9.71197039,1.65207023 C9.76347804,1.68426251 9.80697785,1.72776232 9.83917014,1.77926998 L11.7821267,4.88800042 C11.8992108,5.07533504 11.8422615,5.32211519 11.6549269,5.43919932 C11.5913543,5.47893222 11.5178952,5.5 11.4429273,5.5 L7.55701428,5.5 C7.33610038,5.5 7.15701428,5.3209139 7.15701428,5.1 C7.15701428,5.02503211 7.17808206,4.95157306 7.21781496,4.88800042 Z" id="Path-9-Copy-2" fill="#007FDF" fill-rule="nonzero" transform="translate(9.500000, 3.500000) rotate(-90.000000) translate(-9.500000, -3.500000) "></path>
            <path d="M2,11.5 C2,11.2238576 2.22385763,11 2.5,11 C2.77614237,11 3,11.2238576 3,11.5 L3,12 C3,16.418278 6.581722,20 11,20 C15.418278,20 19,16.418278 19,12 C19,7.581722 15.418278,4 11,4 L10.8561104,4 C10.5799681,4 10.3561104,3.77614237 10.3561104,3.5 C10.3561104,3.22385763 10.5799681,3 10.8561104,3 L11,3 C15.9705627,3 20,7.02943725 20,12 C20,16.9705627 15.9705627,21 11,21 C6.02943725,21 2,16.9705627 2,12 L2,11.5 Z" id="Combined-Shape" fill="#007FDF" fill-rule="nonzero"></path>
            <polyline id="Path-2" stroke="#007FDF" stroke-linecap="round" stroke-linejoin="round" transform="translate(12.500000, 11.500000) scale(-1, 1) translate(-12.500000, -11.500000) " points="14 8 14 12 11 15"></polyline>
        </g>
    </g>
</svg>