<svg width="20px" height="18px" viewBox="0 0 20 18" version="1.1" xmlns="http://www.w3.org/2000/svg" xmlns:xlink="http://www.w3.org/1999/xlink">
    <!-- Generator: Sketch 43.2 (39069) - http://www.bohemiancoding.com/sketch -->
    <desc>Created with Sketch.</desc>
    <defs></defs>
    <g id="0421" stroke="none" stroke-width="1" fill="none" fill-rule="evenodd">
        <g id="head_消息中心_tips" transform="translate(-1630.000000, -216.000000)" fill="#0088EF">
            <g id="Group-13" transform="translate(1630.000000, 215.000000)">
                <path d="M2.23064545,11.9072747 C1.1939182,7.69149951 3.71612769,3.40154907 7.92944764,2.27259339 C11.1933375,1.39803673 14.6151227,2.67002612 16.5304375,5.37476406 L17.4544286,4.95266131 C15.3638541,1.86477204 11.4752204,0.287230263 7.67062859,1.30666756 C2.86943366,2.59314387 0.0201912593,7.52817648 1.30666756,12.3293714 L2.23064545,11.9072747 Z" id="Path" fill-rule="nonzero"></path>
                <path d="M18.6933324,7.67062859 C19.9798087,12.4718235 17.1305663,17.4068561 12.3293714,18.6933324 C8.54660173,19.7069225 4.68075147,18.1532392 2.58172146,15.1003234 L3.50484358,14.6746356 C5.42789802,17.3467533 8.82785589,18.5962845 12.0705524,17.7274066 C16.2826797,16.5987705 18.8046538,12.3109289 17.7702341,8.09630539 L18.6933324,7.67062859 Z" id="Oval-21-Copy" fill-rule="nonzero"></path>
                <path d="M1.66022095,13.216999 C2.48864808,13.216999 3.16022095,12.5454261 3.16022095,11.716999 C3.16022095,10.8885718 2.48864808,10.216999 1.66022095,10.216999 C0.831793829,10.216999 0.160220954,10.8885718 0.160220954,11.716999 C0.160220954,12.5454261 0.831793829,13.216999 1.66022095,13.216999 Z" id="Oval"></path>
                <path d="M18.339779,9.78300103 C19.1682062,9.78300103 19.839779,9.11142815 19.839779,8.28300103 C19.839779,7.45457391 19.1682062,6.78300103 18.339779,6.78300103 C17.5113519,6.78300103 16.839779,7.45457391 16.839779,8.28300103 C16.839779,9.11142815 17.5113519,9.78300103 18.339779,9.78300103 Z" id="Oval-Copy"></path>
                <path d="M10,12 C11.1045695,12 12,11.1045695 12,10 C12,8.8954305 11.1045695,8 10,8 C8.8954305,8 8,8.8954305 8,10 C8,11.1045695 8.8954305,12 10,12 Z" id="Oval-Copy-2"></path>
            </g>
        </g>
    </g>
</svg>
