
<svg width="30px" height="30px" viewBox="0 0 30 30" version="1.1" xmlns="http://www.w3.org/2000/svg" xmlns:xlink="http://www.w3.org/1999/xlink">
    <!-- Generator: Sketch 43.2 (39069) - http://www.bohemiancoding.com/sketch -->
    <desc>Created with Sketch.</desc>
    <defs>
        <path d="M0.372363091,15.9305649 C0.718997384,14.3120586 2.32800558,12.8524466 3.97193443,12.6697912 L10.0001666,12 L16.0281756,12.6697912 C17.6694689,12.8521605 19.2812169,14.3130593 19.6276369,15.9305649 L19.7903672,16.690386 C19.9061442,17.2309723 19.623246,17.9098614 19.1353665,18.1749521 C19.1353665,18.1749521 16.8777728,20 9.99991513,20 C3.12205745,20 0.853294102,18.1692183 0.853294102,18.1692183 C0.382032782,17.8930681 0.0922851563,17.2383059 0.209632769,16.690386 L0.372363091,15.9305649 Z" id="path-1"></path>
        <path d="M10,14 C13.6066834,14 16,10.1181841 16,6.70701357 C16,3.29584306 13.3137085,0 10,0 C6.6862915,0 4,3.29584306 4,6.70701357 C4,10.1181841 6.39331657,14 10,14 Z" id="path-2"></path>
    </defs>
    <g id="首页&amp;登录" stroke="none" stroke-width="1" fill="none" fill-rule="evenodd">
        <g id="登录_账户_默认" transform="translate(-780.000000, -570.000000)">
            <g id="Group-3" transform="translate(740.000000, 190.000000)">
                <g id="Group" transform="translate(40.000000, 380.000000)">
                    <rect id="Rectangle-22" x="0" y="0" width="30" height="30"></rect>
                    <g id="Group-5" transform="translate(5.000000, 5.000000)">
                        <g id="Group-6">
                            <g id="Rectangle">
                                <use fill="#E0F3FF" fill-rule="evenodd" xlink:href="#path-1"></use>
                                <path stroke="#97A4B6" stroke-width="1" d="M10.0001656,12.503077 L15.9729588,13.1667329 C17.3997991,13.3252737 18.8372661,14.6277061 19.138724,16.035275 L19.3014544,16.7950961 C19.3736022,17.1319689 19.1782379,17.5826164 18.8966523,17.7356168 C18.7748116,17.8234804 18.6506196,17.9059347 18.4388865,18.0194583 C18.0669784,18.2188617 17.5886472,18.4208953 16.9942857,18.6113164 C15.2652952,19.1652492 12.958899,19.5 9.99991513,19.5 C7.04100975,19.5 4.73258171,19.1642 3.00012271,18.6085018 C2.40448152,18.4174458 1.92477759,18.2147199 1.55149376,18.0146067 C1.33886197,17.9006172 1.21395141,17.8177618 1.16728814,17.7801069 C0.819145185,17.5696877 0.626809741,17.1300456 0.698545638,16.7950961 L0.861275959,16.035275 C1.16306694,14.6261513 2.59823663,13.3254983 4.02714919,13.1667332 L10.0001656,12.503077 Z"></path>
                            </g>
                            <g id="Oval-3">
                                <use fill="#FFFFFF" fill-rule="evenodd" xlink:href="#path-2"></use>
                                <path stroke="#97A4B6" stroke-width="1" d="M10,13.5 C6.9667606,13.5 4.5,10.2157724 4.5,6.70701357 C4.5,3.45633648 7.06722668,0.5 10,0.5 C12.9327733,0.5 15.5,3.45633648 15.5,6.70701357 C15.5,10.2157724 13.0332394,13.5 10,13.5 Z"></path>
                            </g>
                        </g>
                    </g>
                </g>
            </g>
        </g>
    </g>
</svg>